HIERARCHY
ROOT Hips
{
 OFFSET 0.000000 0.000000 0.000000
 CHANNELS 6 Xposition Yposition Zposition Zrotation Yrotation Xrotation
 JOINT LeftUpLeg
 {
  OFFSET -10.548519 0.103460 -1.857825
  CHANNELS 3 Zrotation Yrotation Xrotation
  JOINT LeftLeg
  {
   OFFSET 0.000016 -43.500008 0.000019
   CHANNELS 3 Zrotation Yrotation Xrotation
   JOINT LeftFoot
   {
    OFFSET 0.000011 -42.372192 -0.000004
    CHANNELS 3 Zrotation Yrotation Xrotation
    JOINT LeftToe
    {
     OFFSET -0.000016 0.000001 -17.300001
     CHANNELS 3 Zrotation Yrotation Xrotation
     End Site
     {
      OFFSET 0.000000 0.000000 0.000000
     }
    }
   }
  }
 }
 JOINT RightUpLeg
 {
  OFFSET 10.548484 0.103460 -1.857824
  CHANNELS 3 Zrotation Yrotation Xrotation
  JOINT RightLeg
  {
   OFFSET 0.000031 -43.500046 0.000008
   CHANNELS 3 Zrotation Yrotation Xrotation
   JOINT RightFoot
   {
    OFFSET 0.000010 -42.372261 0.000000
    CHANNELS 3 Zrotation Yrotation Xrotation
    JOINT RightToe
    {
     OFFSET 0.000010 -0.000007 -17.299986
     CHANNELS 3 Zrotation Yrotation Xrotation
     End Site
     {
      OFFSET 0.000000 0.000000 0.000000
     }
    }
   }
  }
 }
 JOINT Spine
 {
  OFFSET 0.000000 6.901969 2.603749
  CHANNELS 3 Zrotation Yrotation Xrotation
  JOINT Spine1
  {
   OFFSET 0.000003 12.588099 -0.000014
   CHANNELS 3 Zrotation Yrotation Xrotation
   JOINT Spine2
   {
    OFFSET -0.000011 12.343207 -0.000019
    CHANNELS 3 Zrotation Yrotation Xrotation
    JOINT Neck
    {
     OFFSET 0.000002 25.832890 0.000025
     CHANNELS 3 Zrotation Yrotation Xrotation
     JOINT Head
     {
      OFFSET 0.000004 11.766609 -0.000013
      CHANNELS 3 Zrotation Yrotation Xrotation
      End Site
      {
       OFFSET 0.000000 0.000000 0.000000
      }
     }
    }
    JOINT LeftShoulder
    {
     OFFSET -6.000105 19.745899 1.480392
     CHANNELS 3 Zrotation Yrotation Xrotation
     JOINT LeftArm
     {
      OFFSET -11.284097 -0.000023 -0.000017
      CHANNELS 3 Zrotation Yrotation Xrotation
      JOINT LeftForeArm
      {
       OFFSET -33.000065 0.000044 -0.000020
       CHANNELS 3 Zrotation Yrotation Xrotation
       JOINT LeftHand
       {
        OFFSET -25.200005 0.000007 0.000023
        CHANNELS 3 Zrotation Yrotation Xrotation
        End Site
        {
         OFFSET 0.000000 0.000000 0.000000
        }
       }
      }
     }
    }
    JOINT RightShoulder
    {
     OFFSET 6.000090 19.746096 1.480391
     CHANNELS 3 Zrotation Yrotation Xrotation
     JOINT RightArm
     {
      OFFSET 11.284126 0.000012 -0.000026
      CHANNELS 3 Zrotation Yrotation Xrotation
      JOINT RightForeArm
      {
       OFFSET 33.000092 -0.000014 0.000010
       CHANNELS 3 Zrotation Yrotation Xrotation
       JOINT RightHand
       {
        OFFSET 25.199760 -0.000418 0.000151
        CHANNELS 3 Zrotation Yrotation Xrotation
        End Site
        {
         OFFSET 0.000000 0.000000 0.000000
        }
       }
      }
     }
    }
   }
  }
 }
}
MOTION
Frames: 7
Frame Time: 0.016667
0.000000 72.569844 0.000000 1.793807 -0.268529 8.511053 -31.497169 6.018146 -4.121078 7.006496 -3.317917 -55.726674 19.149567 -12.087451 21.854176 0.001131 0.002874 21.454551 29.565077 -7.454768 23.795078 2.509862 -5.614206 -18.471543 -14.515555 -3.502101 -8.695871 -0.001117 -0.002897 21.454560 -1.536149 -1.945598 -9.548581 -3.214845 -3.603546 -9.465378 -2.897108 -3.637156 -8.915003 10.923620 -4.401965 -15.963179 -5.161363 -9.223021 10.912547 -15.816881 -0.211084 2.064469 -60.178615 -60.831118 86.104745 -50.358535 -72.217816 45.962706 -19.202995 -8.390698 -19.651671 -7.083104 10.568238 -0.041784 19.418851 48.100618 110.797345 74.774630 80.873463 72.250344 36.308137 -11.425647 29.793272
0.000000 73.352686 0.000000 0.978335 -2.690673 8.414237 -28.793374 7.687856 -5.016279 5.994325 -1.998848 -51.855412 16.956134 -9.849039 20.745588 0.001131 0.002879 21.454552 28.332273 -6.705244 22.408829 1.924907 -7.663170 -16.641175 -14.362920 -5.064471 -6.987083 -0.001119 -0.002900 21.454558 -1.230875 -1.830010 -9.297927 -2.473115 -3.544607 -8.627999 -2.366181 -3.416931 -8.191913 8.761109 -3.704285 -19.749651 -5.692952 -9.030439 12.096822 -17.028952 1.306265 1.958718 -58.791914 -58.998740 93.233810 -56.144108 -76.912936 52.790947 -24.772981 -11.780251 -19.919928 -3.505918 9.308695 0.548358 21.066117 47.992857 114.832734 105.805815 82.945805 103.132387 36.500750 -5.700915 21.776364
-2.740902 76.913340 0.840864 1.120882 -5.607643 8.061835 -24.840254 9.625882 -6.630704 4.758727 -0.703796 -49.710799 15.025671 -7.918230 19.578218 0.001132 0.002880 21.454554 23.294161 -14.080149 25.500226 1.257546 -4.052997 -25.298527 -20.872622 -1.878817 -10.219183 -0.001117 -0.002893 21.454562 -0.949068 -1.656972 -9.061686 -2.250511 -3.048904 -7.934949 -2.241272 -3.081243 -7.746099 6.266630 -3.948142 -22.006486 -4.985996 -8.452793 12.450871 -17.396385 1.775718 1.888153 -56.590264 -57.149188 97.341678 -70.573374 -80.325749 67.422646 -27.785778 -16.379356 -21.577914 -0.762238 7.872194 0.812765 27.079072 45.431158 119.091866 116.118531 84.248555 113.509412 36.349730 -2.550794 17.135386
-5.371184 78.078973 1.896206 1.132592 -8.065033 7.938457 -22.434121 11.360714 -7.657818 3.757423 0.013950 -46.121544 13.857914 -6.029264 17.651569 0.001129 0.002878 21.454553 17.931614 -18.698657 28.242896 -0.104460 2.420445 -36.841106 -20.242308 1.920054 -14.391018 -0.001120 -0.002893 21.454557 -0.889719 -1.630465 -8.927972 -1.808857 -3.017384 -7.364729 -1.837203 -2.982038 -7.450389 5.464340 -4.412874 -24.662792 -4.228695 -7.573448 15.040224 -17.698831 2.043034 1.988857 -53.650309 -55.168898 100.985453 -73.638499 -82.985103 70.829297 -32.480608 -18.551972 -20.636765 1.232862 6.164203 1.131078 32.813340 44.418950 121.777183 140.903325 83.682801 138.381547 36.577669 -1.546763 14.453251
-7.572332 80.342471 2.996288 1.174089 -9.617752 7.777434 -20.450639 13.193758 -6.273594 3.291851 0.738481 -43.693121 12.773726 -4.687567 14.192822 0.001130 0.002878 21.454549 15.275908 -18.369159 28.629576 -2.095163 3.680767 -49.124157 -21.304862 3.911706 -12.263997 -0.001122 -0.002905 21.454557 -0.762498 -1.589987 -8.562042 -1.765216 -3.157108 -7.189149 -1.651026 -3.011804 -6.911508 3.051551 -4.925572 -25.883654 -4.083255 -7.071379 15.235117 -17.576761 2.076704 1.931268 -51.280333 -55.335423 103.968042 -100.044749 -85.438832 97.480999 -36.442444 -21.336096 -19.296369 2.737932 4.649456 1.373053 34.204110 43.637425 122.597613 158.939810 82.197086 156.100476 36.641314 3.174013 10.106824
-9.511384 82.029142 4.153018 0.462300 -10.443112 7.547053 -18.265784 15.322654 -6.351919 2.637789 0.806065 -41.852449 11.227091 -3.788816 11.786395 0.001131 0.002874 21.454549 13.584027 -17.175628 27.254551 -2.691509 2.534471 -58.291433 -20.782645 4.032532 -9.287107 -0.001127 -0.002907 21.454555 -0.682946 -1.758535 -8.355308 -1.456775 -3.335534 -6.981908 -1.605506 -3.624806 -6.246480 2.248266 -5.639377 -26.709323 -3.233111 -5.743982 15.983998 -16.386762 1.575415 1.885761 -48.796332 -55.357140 102.168551 -118.708168 -85.782872 115.975458 -39.716185 -23.751640 -18.331917 3.823799 3.645837 1.544616 35.520091 42.101333 120.653297 170.993561 79.977680 168.337735 35.059589 4.130418 8.089379
-11.376258 82.506881 5.633574 0.484172 -10.857008 6.659404 -16.208686 16.313789 -6.517646 2.179850 1.163437 -39.282430 10.330122 -2.882743 9.173155 0.001129 0.002871 21.454549 11.871240 -17.576733 24.817477 -1.133348 0.441375 -66.044229 -19.893496 3.103817 -7.064247 -0.001118 -0.002895 21.454560 -0.534980 -1.772810 -8.309282 -1.138582 -3.757719 -6.480504 -1.520886 -3.507820 -6.179467 1.769434 -6.317053 -26.769860 -3.061628 -5.627148 16.509382 -15.875351 1.151996 1.868161 -45.051343 -55.263722 98.716044 -141.625165 -84.495216 138.796957 -39.358606 -25.115320 -19.125264 5.640461 2.820406 1.639887 34.058139 41.778691 117.186822 173.332183 79.915484 170.685930 34.901244 3.713443 5.577009
